<mxfile host="app.diagrams.net" agent="Mozilla/5.0 (Macintosh; Intel Mac OS X 10_15_7) AppleWebKit/605.1.15 (KHTML, like Gecko) Version/18.0.1 Safari/605.1.15" version="24.8.2">
  <diagram id="C5RBs43oDa-KdzZeNtuy" name="Page-1">
    <mxGraphModel grid="1" page="1" gridSize="10" guides="1" tooltips="1" connect="1" arrows="1" fold="1" pageScale="1" pageWidth="827" pageHeight="1169" math="0" shadow="0">
      <root>
        <mxCell id="WIyWlLk6GJQsqaUBKTNV-0" />
        <mxCell id="WIyWlLk6GJQsqaUBKTNV-1" parent="WIyWlLk6GJQsqaUBKTNV-0" />
        <mxCell id="WIyWlLk6GJQsqaUBKTNV-2" value="" style="rounded=0;html=1;jettySize=auto;orthogonalLoop=1;fontSize=11;endArrow=block;endFill=0;endSize=8;strokeWidth=1;shadow=0;labelBackgroundColor=none;edgeStyle=orthogonalEdgeStyle;entryX=0.5;entryY=0;entryDx=0;entryDy=0;" edge="1" parent="WIyWlLk6GJQsqaUBKTNV-1" source="WIyWlLk6GJQsqaUBKTNV-3" target="TJXBcUdPVtNGZC_TJ2o9-9">
          <mxGeometry relative="1" as="geometry">
            <mxPoint x="378" y="170" as="targetPoint" />
            <Array as="points">
              <mxPoint x="380" y="230" />
              <mxPoint x="380" y="230" />
            </Array>
          </mxGeometry>
        </mxCell>
        <mxCell id="7ZxIX56gei3QFjoK8vcH-0" style="edgeStyle=orthogonalEdgeStyle;rounded=0;orthogonalLoop=1;jettySize=auto;html=1;exitX=0.5;exitY=1;exitDx=0;exitDy=0;entryX=0.5;entryY=0;entryDx=0;entryDy=0;" edge="1" parent="WIyWlLk6GJQsqaUBKTNV-1" source="WIyWlLk6GJQsqaUBKTNV-3" target="TJXBcUdPVtNGZC_TJ2o9-12">
          <mxGeometry relative="1" as="geometry">
            <mxPoint x="1070" y="210" as="targetPoint" />
            <Array as="points">
              <mxPoint x="380" y="210" />
              <mxPoint x="1085" y="210" />
            </Array>
          </mxGeometry>
        </mxCell>
        <mxCell id="7ZxIX56gei3QFjoK8vcH-6" style="edgeStyle=orthogonalEdgeStyle;rounded=0;orthogonalLoop=1;jettySize=auto;html=1;exitX=0.5;exitY=1;exitDx=0;exitDy=0;entryX=0.5;entryY=0;entryDx=0;entryDy=0;" edge="1" parent="WIyWlLk6GJQsqaUBKTNV-1" source="WIyWlLk6GJQsqaUBKTNV-3" target="TJXBcUdPVtNGZC_TJ2o9-10">
          <mxGeometry relative="1" as="geometry">
            <mxPoint x="630" y="300" as="targetPoint" />
            <Array as="points">
              <mxPoint x="380" y="210" />
              <mxPoint x="626" y="210" />
            </Array>
          </mxGeometry>
        </mxCell>
        <mxCell id="7ZxIX56gei3QFjoK8vcH-7" style="edgeStyle=orthogonalEdgeStyle;rounded=0;orthogonalLoop=1;jettySize=auto;html=1;exitX=0.5;exitY=1;exitDx=0;exitDy=0;" edge="1" parent="WIyWlLk6GJQsqaUBKTNV-1" source="WIyWlLk6GJQsqaUBKTNV-3">
          <mxGeometry relative="1" as="geometry">
            <mxPoint x="850" y="340" as="targetPoint" />
            <Array as="points">
              <mxPoint x="380" y="210" />
              <mxPoint x="851" y="210" />
              <mxPoint x="851" y="340" />
            </Array>
          </mxGeometry>
        </mxCell>
        <mxCell id="7ZxIX56gei3QFjoK8vcH-33" style="edgeStyle=orthogonalEdgeStyle;rounded=0;orthogonalLoop=1;jettySize=auto;html=1;exitX=1;exitY=0.5;exitDx=0;exitDy=0;entryX=0;entryY=0.5;entryDx=0;entryDy=0;" edge="1" parent="WIyWlLk6GJQsqaUBKTNV-1">
          <mxGeometry relative="1" as="geometry">
            <mxPoint x="1449.9999999999995" y="722.9999999999995" as="targetPoint" />
            <mxPoint x="520.0000000000005" y="98" as="sourcePoint" />
            <Array as="points">
              <mxPoint x="470" y="98" />
              <mxPoint x="470" y="-282" />
              <mxPoint x="1270" y="-282" />
              <mxPoint x="1270" y="723" />
            </Array>
          </mxGeometry>
        </mxCell>
        <mxCell id="WIyWlLk6GJQsqaUBKTNV-3" value="&lt;p style=&quot;margin: 0px; font-style: normal; font-variant-caps: normal; font-stretch: normal; line-height: normal; font-size-adjust: none; font-kerning: auto; font-variant-alternates: normal; font-variant-ligatures: normal; font-variant-numeric: normal; font-variant-east-asian: normal; font-variant-position: normal; font-variant-emoji: normal; font-feature-settings: normal; font-optical-sizing: auto; font-variation-settings: normal;&quot;&gt;Frontend (React)&lt;/p&gt;" style="rounded=1;whiteSpace=wrap;html=1;fontSize=12;glass=0;strokeWidth=1;shadow=0;" vertex="1" parent="WIyWlLk6GJQsqaUBKTNV-1">
          <mxGeometry x="240" y="80" width="280" height="40" as="geometry" />
        </mxCell>
        <mxCell id="7ZxIX56gei3QFjoK8vcH-10" style="edgeStyle=orthogonalEdgeStyle;rounded=0;orthogonalLoop=1;jettySize=auto;html=1;exitX=0.5;exitY=1;exitDx=0;exitDy=0;entryX=0;entryY=0;entryDx=0;entryDy=0;" edge="1" parent="WIyWlLk6GJQsqaUBKTNV-1" source="TJXBcUdPVtNGZC_TJ2o9-2" target="TJXBcUdPVtNGZC_TJ2o9-9">
          <mxGeometry relative="1" as="geometry">
            <mxPoint x="320" y="340" as="targetPoint" />
            <Array as="points">
              <mxPoint x="750" y="150" />
              <mxPoint x="315" y="150" />
            </Array>
          </mxGeometry>
        </mxCell>
        <mxCell id="7ZxIX56gei3QFjoK8vcH-12" style="edgeStyle=orthogonalEdgeStyle;rounded=0;orthogonalLoop=1;jettySize=auto;html=1;exitX=0.5;exitY=1;exitDx=0;exitDy=0;entryX=0;entryY=0;entryDx=0;entryDy=0;" edge="1" parent="WIyWlLk6GJQsqaUBKTNV-1" source="TJXBcUdPVtNGZC_TJ2o9-2" target="TJXBcUdPVtNGZC_TJ2o9-11">
          <mxGeometry relative="1" as="geometry">
            <mxPoint x="800" y="340" as="targetPoint" />
            <Array as="points">
              <mxPoint x="750" y="150" />
              <mxPoint x="790" y="150" />
            </Array>
          </mxGeometry>
        </mxCell>
        <mxCell id="7ZxIX56gei3QFjoK8vcH-13" style="edgeStyle=orthogonalEdgeStyle;rounded=0;orthogonalLoop=1;jettySize=auto;html=1;exitX=0.5;exitY=1;exitDx=0;exitDy=0;" edge="1" parent="WIyWlLk6GJQsqaUBKTNV-1" source="TJXBcUdPVtNGZC_TJ2o9-2">
          <mxGeometry relative="1" as="geometry">
            <mxPoint x="1020" y="340" as="targetPoint" />
            <Array as="points">
              <mxPoint x="750" y="150" />
              <mxPoint x="1020" y="150" />
            </Array>
          </mxGeometry>
        </mxCell>
        <mxCell id="7ZxIX56gei3QFjoK8vcH-46" style="edgeStyle=orthogonalEdgeStyle;rounded=0;orthogonalLoop=1;jettySize=auto;html=1;exitX=0.5;exitY=1;exitDx=0;exitDy=0;entryX=1;entryY=1;entryDx=0;entryDy=0;" edge="1" parent="WIyWlLk6GJQsqaUBKTNV-1" source="TJXBcUdPVtNGZC_TJ2o9-2" target="TJXBcUdPVtNGZC_TJ2o9-15">
          <mxGeometry relative="1" as="geometry">
            <mxPoint x="750" y="590" as="targetPoint" />
            <Array as="points">
              <mxPoint x="750" y="585" />
            </Array>
          </mxGeometry>
        </mxCell>
        <mxCell id="TJXBcUdPVtNGZC_TJ2o9-2" value="Backend API (Flask)" style="rounded=1;whiteSpace=wrap;html=1;" vertex="1" parent="WIyWlLk6GJQsqaUBKTNV-1">
          <mxGeometry x="620" y="80" width="260" height="40" as="geometry" />
        </mxCell>
        <mxCell id="7ZxIX56gei3QFjoK8vcH-18" style="edgeStyle=orthogonalEdgeStyle;rounded=0;orthogonalLoop=1;jettySize=auto;html=1;exitX=0.5;exitY=1;exitDx=0;exitDy=0;entryX=1;entryY=0;entryDx=0;entryDy=0;" edge="1" parent="WIyWlLk6GJQsqaUBKTNV-1" source="TJXBcUdPVtNGZC_TJ2o9-3" target="TJXBcUdPVtNGZC_TJ2o9-9">
          <mxGeometry relative="1" as="geometry">
            <Array as="points">
              <mxPoint x="1100" y="180" />
              <mxPoint x="445" y="180" />
            </Array>
          </mxGeometry>
        </mxCell>
        <mxCell id="7ZxIX56gei3QFjoK8vcH-19" style="edgeStyle=orthogonalEdgeStyle;rounded=0;orthogonalLoop=1;jettySize=auto;html=1;entryX=1;entryY=0;entryDx=0;entryDy=0;" edge="1" parent="WIyWlLk6GJQsqaUBKTNV-1" source="TJXBcUdPVtNGZC_TJ2o9-3" target="TJXBcUdPVtNGZC_TJ2o9-11">
          <mxGeometry relative="1" as="geometry">
            <Array as="points">
              <mxPoint x="1100" y="180" />
              <mxPoint x="920" y="180" />
            </Array>
          </mxGeometry>
        </mxCell>
        <mxCell id="7ZxIX56gei3QFjoK8vcH-20" style="edgeStyle=orthogonalEdgeStyle;rounded=0;orthogonalLoop=1;jettySize=auto;html=1;exitX=0.5;exitY=1;exitDx=0;exitDy=0;entryX=1;entryY=0;entryDx=0;entryDy=0;" edge="1" parent="WIyWlLk6GJQsqaUBKTNV-1" source="TJXBcUdPVtNGZC_TJ2o9-3" target="TJXBcUdPVtNGZC_TJ2o9-12">
          <mxGeometry relative="1" as="geometry">
            <Array as="points">
              <mxPoint x="1100" y="180" />
              <mxPoint x="1150" y="180" />
            </Array>
          </mxGeometry>
        </mxCell>
        <mxCell id="7ZxIX56gei3QFjoK8vcH-47" style="edgeStyle=orthogonalEdgeStyle;rounded=0;orthogonalLoop=1;jettySize=auto;html=1;exitX=1;exitY=0.5;exitDx=0;exitDy=0;entryX=0;entryY=1;entryDx=0;entryDy=0;" edge="1" parent="WIyWlLk6GJQsqaUBKTNV-1" source="TJXBcUdPVtNGZC_TJ2o9-3" target="7ZxIX56gei3QFjoK8vcH-22">
          <mxGeometry relative="1" as="geometry">
            <mxPoint x="1249.9999999999995" y="-20" as="targetPoint" />
            <Array as="points">
              <mxPoint x="1160" y="100" />
              <mxPoint x="1160" y="-20" />
            </Array>
          </mxGeometry>
        </mxCell>
        <mxCell id="TJXBcUdPVtNGZC_TJ2o9-3" value="SQLite Database (SQL)" style="rounded=1;whiteSpace=wrap;html=1;" vertex="1" parent="WIyWlLk6GJQsqaUBKTNV-1">
          <mxGeometry x="970" y="80" width="260" height="40" as="geometry" />
        </mxCell>
        <mxCell id="TJXBcUdPVtNGZC_TJ2o9-6" style="edgeStyle=orthogonalEdgeStyle;rounded=0;orthogonalLoop=1;jettySize=auto;html=1;entryX=0.5;entryY=0;entryDx=0;entryDy=0;" edge="1" parent="WIyWlLk6GJQsqaUBKTNV-1" source="TJXBcUdPVtNGZC_TJ2o9-5" target="WIyWlLk6GJQsqaUBKTNV-3">
          <mxGeometry relative="1" as="geometry">
            <Array as="points">
              <mxPoint x="750" y="-50" />
              <mxPoint x="380" y="-50" />
            </Array>
          </mxGeometry>
        </mxCell>
        <mxCell id="TJXBcUdPVtNGZC_TJ2o9-7" style="edgeStyle=orthogonalEdgeStyle;rounded=0;orthogonalLoop=1;jettySize=auto;html=1;entryX=0.5;entryY=0;entryDx=0;entryDy=0;" edge="1" parent="WIyWlLk6GJQsqaUBKTNV-1" source="TJXBcUdPVtNGZC_TJ2o9-5" target="TJXBcUdPVtNGZC_TJ2o9-2">
          <mxGeometry relative="1" as="geometry" />
        </mxCell>
        <mxCell id="TJXBcUdPVtNGZC_TJ2o9-8" style="edgeStyle=orthogonalEdgeStyle;rounded=0;orthogonalLoop=1;jettySize=auto;html=1;entryX=0.5;entryY=0;entryDx=0;entryDy=0;" edge="1" parent="WIyWlLk6GJQsqaUBKTNV-1" source="TJXBcUdPVtNGZC_TJ2o9-5" target="TJXBcUdPVtNGZC_TJ2o9-3">
          <mxGeometry relative="1" as="geometry">
            <Array as="points">
              <mxPoint x="750" y="-50" />
              <mxPoint x="1100" y="-50" />
            </Array>
          </mxGeometry>
        </mxCell>
        <mxCell id="TJXBcUdPVtNGZC_TJ2o9-5" value="Docker Container" style="rounded=1;whiteSpace=wrap;html=1;" vertex="1" parent="WIyWlLk6GJQsqaUBKTNV-1">
          <mxGeometry x="595" y="-210" width="310" height="130" as="geometry" />
        </mxCell>
        <mxCell id="TJXBcUdPVtNGZC_TJ2o9-9" value="User Registration Page" style="whiteSpace=wrap;html=1;aspect=fixed;" vertex="1" parent="WIyWlLk6GJQsqaUBKTNV-1">
          <mxGeometry x="315" y="341" width="130" height="130" as="geometry" />
        </mxCell>
        <mxCell id="TJXBcUdPVtNGZC_TJ2o9-10" value="Home Page" style="whiteSpace=wrap;html=1;aspect=fixed;" vertex="1" parent="WIyWlLk6GJQsqaUBKTNV-1">
          <mxGeometry x="561" y="341" width="130" height="130" as="geometry" />
        </mxCell>
        <mxCell id="TJXBcUdPVtNGZC_TJ2o9-11" value="User Login Page" style="whiteSpace=wrap;html=1;aspect=fixed;" vertex="1" parent="WIyWlLk6GJQsqaUBKTNV-1">
          <mxGeometry x="790" y="341" width="130" height="130" as="geometry" />
        </mxCell>
        <mxCell id="TJXBcUdPVtNGZC_TJ2o9-12" value="PAO Login Page" style="whiteSpace=wrap;html=1;aspect=fixed;" vertex="1" parent="WIyWlLk6GJQsqaUBKTNV-1">
          <mxGeometry x="1020" y="341" width="130" height="130" as="geometry" />
        </mxCell>
        <mxCell id="TJXBcUdPVtNGZC_TJ2o9-14" value="Website Home" style="whiteSpace=wrap;html=1;aspect=fixed;" vertex="1" parent="WIyWlLk6GJQsqaUBKTNV-1">
          <mxGeometry x="1450" y="50" width="130" height="130" as="geometry" />
        </mxCell>
        <mxCell id="TJXBcUdPVtNGZC_TJ2o9-15" value="Pet List" style="whiteSpace=wrap;html=1;aspect=fixed;" vertex="1" parent="WIyWlLk6GJQsqaUBKTNV-1">
          <mxGeometry x="-80" y="455" width="130" height="130" as="geometry" />
        </mxCell>
        <mxCell id="TJXBcUdPVtNGZC_TJ2o9-16" value="PAO Admin Panel" style="whiteSpace=wrap;html=1;aspect=fixed;" vertex="1" parent="WIyWlLk6GJQsqaUBKTNV-1">
          <mxGeometry x="1450" y="270" width="130" height="130" as="geometry" />
        </mxCell>
        <mxCell id="7ZxIX56gei3QFjoK8vcH-21" value="New User Home Page" style="whiteSpace=wrap;html=1;aspect=fixed;" vertex="1" parent="WIyWlLk6GJQsqaUBKTNV-1">
          <mxGeometry x="1450" y="471" width="130" height="130" as="geometry" />
        </mxCell>
        <mxCell id="7ZxIX56gei3QFjoK8vcH-22" value="PAO Questionnaire Accept/Reject" style="whiteSpace=wrap;html=1;aspect=fixed;" vertex="1" parent="WIyWlLk6GJQsqaUBKTNV-1">
          <mxGeometry x="1450" y="-150" width="130" height="130" as="geometry" />
        </mxCell>
        <mxCell id="7ZxIX56gei3QFjoK8vcH-23" value="PAO Admin Home" style="whiteSpace=wrap;html=1;aspect=fixed;" vertex="1" parent="WIyWlLk6GJQsqaUBKTNV-1">
          <mxGeometry x="-80" y="-150" width="130" height="130" as="geometry" />
        </mxCell>
        <mxCell id="7ZxIX56gei3QFjoK8vcH-24" value="PAO Admin Submission" style="whiteSpace=wrap;html=1;aspect=fixed;" vertex="1" parent="WIyWlLk6GJQsqaUBKTNV-1">
          <mxGeometry x="-80" y="50" width="130" height="130" as="geometry" />
        </mxCell>
        <mxCell id="7ZxIX56gei3QFjoK8vcH-26" value="Questionnaire Waiting" style="whiteSpace=wrap;html=1;aspect=fixed;" vertex="1" parent="WIyWlLk6GJQsqaUBKTNV-1">
          <mxGeometry x="-80" y="250" width="130" height="130" as="geometry" />
        </mxCell>
        <mxCell id="7ZxIX56gei3QFjoK8vcH-27" value="User Home Page" style="whiteSpace=wrap;html=1;aspect=fixed;" vertex="1" parent="WIyWlLk6GJQsqaUBKTNV-1">
          <mxGeometry x="-80" y="680" width="130" height="130" as="geometry" />
        </mxCell>
        <mxCell id="7ZxIX56gei3QFjoK8vcH-28" value="Goofy Temp Page" style="whiteSpace=wrap;html=1;aspect=fixed;" vertex="1" parent="WIyWlLk6GJQsqaUBKTNV-1">
          <mxGeometry x="1450" y="660" width="130" height="130" as="geometry" />
        </mxCell>
        <mxCell id="7ZxIX56gei3QFjoK8vcH-34" value="" style="endArrow=classic;html=1;rounded=0;entryX=0;entryY=0.5;entryDx=0;entryDy=0;" edge="1" parent="WIyWlLk6GJQsqaUBKTNV-1" target="TJXBcUdPVtNGZC_TJ2o9-16">
          <mxGeometry width="50" height="50" relative="1" as="geometry">
            <mxPoint x="1270" y="335" as="sourcePoint" />
            <mxPoint x="2010" y="280" as="targetPoint" />
          </mxGeometry>
        </mxCell>
        <mxCell id="7ZxIX56gei3QFjoK8vcH-35" value="" style="endArrow=classic;html=1;rounded=0;entryX=0;entryY=0.5;entryDx=0;entryDy=0;" edge="1" parent="WIyWlLk6GJQsqaUBKTNV-1">
          <mxGeometry width="50" height="50" relative="1" as="geometry">
            <mxPoint x="1270" y="535.17" as="sourcePoint" />
            <mxPoint x="1450" y="535.17" as="targetPoint" />
          </mxGeometry>
        </mxCell>
        <mxCell id="7ZxIX56gei3QFjoK8vcH-36" value="&lt;span style=&quot;caret-color: rgba(0, 0, 0, 0); color: rgba(0, 0, 0, 0); font-family: monospace; font-size: 0px; text-align: start; background-color: rgb(251, 251, 251);&quot;&gt;%3CmxGraphModel%3E%3Croot%3E%3CmxCell%20id%3D%220%22%2F%3E%3CmxCell%20id%3D%221%22%20parent%3D%220%22%2F%3E%3CmxCell%20id%3D%222%22%20value%3D%22%22%20style%3D%22endArrow%3Dclassic%3Bhtml%3D1%3Brounded%3D0%3BentryX%3D0%3BentryY%3D0.5%3BentryDx%3D0%3BentryDy%3D0%3B%22%20edge%3D%221%22%20parent%3D%221%22%3E%3CmxGeometry%20width%3D%2250%22%20height%3D%2250%22%20relative%3D%221%22%20as%3D%22geometry%22%3E%3CmxPoint%20x%3D%221270%22%20y%3D%22335%22%20as%3D%22sourcePoint%22%2F%3E%3CmxPoint%20x%3D%221450%22%20y%3D%22335%22%20as%3D%22targetPoint%22%2F%3E%3C%2FmxGeometry%3E%3C%2FmxCell%3E%3C%2Froot%3E%3C%2FmxGraphModel%3E&lt;/span&gt;" style="endArrow=classic;html=1;rounded=0;entryX=0;entryY=0.5;entryDx=0;entryDy=0;" edge="1" parent="WIyWlLk6GJQsqaUBKTNV-1">
          <mxGeometry width="50" height="50" relative="1" as="geometry">
            <mxPoint x="1270" y="120" as="sourcePoint" />
            <mxPoint x="1450" y="120" as="targetPoint" />
          </mxGeometry>
        </mxCell>
        <mxCell id="7ZxIX56gei3QFjoK8vcH-37" value="&lt;span style=&quot;caret-color: rgba(0, 0, 0, 0); color: rgba(0, 0, 0, 0); font-family: monospace; font-size: 0px; text-align: start; background-color: rgb(251, 251, 251);&quot;&gt;%3CmxGraphModel%3E%3Croot%3E%3CmxCell%20id%3D%220%22%2F%3E%3CmxCell%20id%3D%221%22%20parent%3D%220%22%2F%3E%3CmxCell%20id%3D%222%22%20value%3D%22%22%20style%3D%22endArrow%3Dclassic%3Bhtml%3D1%3Brounded%3D0%3BentryX%3D0%3BentryY%3D0.5%3BentryDx%3D0%3BentryDy%3D0%3B%22%20edge%3D%221%22%20parent%3D%221%22%3E%3CmxGeometry%20width%3D%2250%22%20height%3D%2250%22%20relative%3D%221%22%20as%3D%22geometry%22%3E%3CmxPoint%20x%3D%221270%22%20y%3D%22335%22%20as%3D%22sourcePoint%22%2F%3E%3CmxPoint%20x%3D%221450%22%20y%3D%22335%22%20as%3D%22targetPoint%22%2F%3E%3C%2FmxGeometry%3E%3C%2FmxCell%3E%3C%2Froot%3E%3C%2FmxGraphModel%3E&lt;/span&gt;" style="endArrow=classic;html=1;rounded=0;entryX=0;entryY=0.5;entryDx=0;entryDy=0;" edge="1" parent="WIyWlLk6GJQsqaUBKTNV-1">
          <mxGeometry width="50" height="50" relative="1" as="geometry">
            <mxPoint x="1270" y="-86" as="sourcePoint" />
            <mxPoint x="1450" y="-86" as="targetPoint" />
          </mxGeometry>
        </mxCell>
        <mxCell id="7ZxIX56gei3QFjoK8vcH-38" value="" style="endArrow=classic;html=1;rounded=0;" edge="1" parent="WIyWlLk6GJQsqaUBKTNV-1">
          <mxGeometry width="50" height="50" relative="1" as="geometry">
            <mxPoint x="470" y="-85.83" as="sourcePoint" />
            <mxPoint x="50" y="-85" as="targetPoint" />
            <Array as="points">
              <mxPoint x="260" y="-85" />
              <mxPoint x="160" y="-85" />
            </Array>
          </mxGeometry>
        </mxCell>
        <mxCell id="7ZxIX56gei3QFjoK8vcH-40" value="" style="endArrow=classic;html=1;rounded=0;entryX=1;entryY=0.5;entryDx=0;entryDy=0;" edge="1" parent="WIyWlLk6GJQsqaUBKTNV-1">
          <mxGeometry width="50" height="50" relative="1" as="geometry">
            <mxPoint x="160" y="-90" as="sourcePoint" />
            <mxPoint x="50" y="735" as="targetPoint" />
            <Array as="points">
              <mxPoint x="160" y="735" />
            </Array>
          </mxGeometry>
        </mxCell>
        <mxCell id="7ZxIX56gei3QFjoK8vcH-43" value="" style="endArrow=classic;html=1;rounded=0;entryX=1;entryY=0.5;entryDx=0;entryDy=0;" edge="1" parent="WIyWlLk6GJQsqaUBKTNV-1" target="7ZxIX56gei3QFjoK8vcH-24">
          <mxGeometry width="50" height="50" relative="1" as="geometry">
            <mxPoint x="160" y="115" as="sourcePoint" />
            <mxPoint x="140" y="80" as="targetPoint" />
          </mxGeometry>
        </mxCell>
        <mxCell id="7ZxIX56gei3QFjoK8vcH-44" value="" style="endArrow=classic;html=1;rounded=0;entryX=1;entryY=0.5;entryDx=0;entryDy=0;" edge="1" parent="WIyWlLk6GJQsqaUBKTNV-1">
          <mxGeometry width="50" height="50" relative="1" as="geometry">
            <mxPoint x="160" y="314.17" as="sourcePoint" />
            <mxPoint x="50" y="314.17" as="targetPoint" />
          </mxGeometry>
        </mxCell>
        <mxCell id="7ZxIX56gei3QFjoK8vcH-45" value="" style="endArrow=classic;html=1;rounded=0;entryX=1;entryY=0.5;entryDx=0;entryDy=0;" edge="1" parent="WIyWlLk6GJQsqaUBKTNV-1">
          <mxGeometry width="50" height="50" relative="1" as="geometry">
            <mxPoint x="160" y="519.1700000000001" as="sourcePoint" />
            <mxPoint x="50" y="519.1700000000001" as="targetPoint" />
          </mxGeometry>
        </mxCell>
        <mxCell id="7hntRUeOx4rwW0876vjf-2" value="" style="shape=image;verticalLabelPosition=bottom;labelBackgroundColor=default;verticalAlign=top;aspect=fixed;imageAspect=0;image=https://upload.wikimedia.org/wikipedia/commons/thumb/a/a7/React-icon.svg/512px-React-icon.svg.png;" vertex="1" parent="WIyWlLk6GJQsqaUBKTNV-1">
          <mxGeometry x="317" y="430" width="32" height="28.5" as="geometry" />
        </mxCell>
        <mxCell id="7hntRUeOx4rwW0876vjf-3" value="" style="shape=image;verticalLabelPosition=bottom;labelBackgroundColor=default;verticalAlign=top;aspect=fixed;imageAspect=0;image=https://upload.wikimedia.org/wikipedia/commons/thumb/c/c3/Python-logo-notext.svg/1200px-Python-logo-notext.svg.png;" vertex="1" parent="WIyWlLk6GJQsqaUBKTNV-1">
          <mxGeometry x="357.95" y="432" width="26.1" height="28.65" as="geometry" />
        </mxCell>
        <mxCell id="7hntRUeOx4rwW0876vjf-7" value="" style="shape=image;verticalLabelPosition=bottom;labelBackgroundColor=default;verticalAlign=top;aspect=fixed;imageAspect=0;image=https://miro.medium.com/v2/resize:fit:852/1*vh9pHJkqksf3wtmYodIyNg.jpeg;" vertex="1" parent="WIyWlLk6GJQsqaUBKTNV-1">
          <mxGeometry x="389.05" y="434.74" width="55.05" height="23.26" as="geometry" />
        </mxCell>
        <mxCell id="7hntRUeOx4rwW0876vjf-8" value="" style="shape=image;verticalLabelPosition=bottom;labelBackgroundColor=default;verticalAlign=top;aspect=fixed;imageAspect=0;image=https://upload.wikimedia.org/wikipedia/commons/thumb/a/a7/React-icon.svg/512px-React-icon.svg.png;" vertex="1" parent="WIyWlLk6GJQsqaUBKTNV-1">
          <mxGeometry x="610" y="432" width="32" height="28.5" as="geometry" />
        </mxCell>
        <mxCell id="7hntRUeOx4rwW0876vjf-9" value="" style="shape=image;verticalLabelPosition=bottom;labelBackgroundColor=default;verticalAlign=top;aspect=fixed;imageAspect=0;image=https://upload.wikimedia.org/wikipedia/commons/thumb/a/a7/React-icon.svg/512px-React-icon.svg.png;" vertex="1" parent="WIyWlLk6GJQsqaUBKTNV-1">
          <mxGeometry x="795" y="434.74" width="32" height="28.5" as="geometry" />
        </mxCell>
        <mxCell id="7hntRUeOx4rwW0876vjf-10" value="" style="shape=image;verticalLabelPosition=bottom;labelBackgroundColor=default;verticalAlign=top;aspect=fixed;imageAspect=0;image=https://upload.wikimedia.org/wikipedia/commons/thumb/c/c3/Python-logo-notext.svg/1200px-Python-logo-notext.svg.png;" vertex="1" parent="WIyWlLk6GJQsqaUBKTNV-1">
          <mxGeometry x="830" y="434.74" width="26.1" height="28.65" as="geometry" />
        </mxCell>
        <mxCell id="7hntRUeOx4rwW0876vjf-11" value="" style="shape=image;verticalLabelPosition=bottom;labelBackgroundColor=default;verticalAlign=top;aspect=fixed;imageAspect=0;image=https://miro.medium.com/v2/resize:fit:852/1*vh9pHJkqksf3wtmYodIyNg.jpeg;" vertex="1" parent="WIyWlLk6GJQsqaUBKTNV-1">
          <mxGeometry x="862.95" y="438.98" width="55.05" height="23.26" as="geometry" />
        </mxCell>
        <mxCell id="7hntRUeOx4rwW0876vjf-12" value="" style="shape=image;verticalLabelPosition=bottom;labelBackgroundColor=default;verticalAlign=top;aspect=fixed;imageAspect=0;image=https://upload.wikimedia.org/wikipedia/commons/thumb/a/a7/React-icon.svg/512px-React-icon.svg.png;" vertex="1" parent="WIyWlLk6GJQsqaUBKTNV-1">
          <mxGeometry x="1020" y="434.74" width="32" height="28.5" as="geometry" />
        </mxCell>
        <mxCell id="7hntRUeOx4rwW0876vjf-13" value="" style="shape=image;verticalLabelPosition=bottom;labelBackgroundColor=default;verticalAlign=top;aspect=fixed;imageAspect=0;image=https://upload.wikimedia.org/wikipedia/commons/thumb/c/c3/Python-logo-notext.svg/1200px-Python-logo-notext.svg.png;" vertex="1" parent="WIyWlLk6GJQsqaUBKTNV-1">
          <mxGeometry x="1060" y="436.29" width="26.1" height="28.65" as="geometry" />
        </mxCell>
        <mxCell id="7hntRUeOx4rwW0876vjf-14" value="" style="shape=image;verticalLabelPosition=bottom;labelBackgroundColor=default;verticalAlign=top;aspect=fixed;imageAspect=0;image=https://miro.medium.com/v2/resize:fit:852/1*vh9pHJkqksf3wtmYodIyNg.jpeg;" vertex="1" parent="WIyWlLk6GJQsqaUBKTNV-1">
          <mxGeometry x="1094.95" y="439.98" width="55.05" height="23.26" as="geometry" />
        </mxCell>
        <mxCell id="7hntRUeOx4rwW0876vjf-15" value="" style="shape=image;verticalLabelPosition=bottom;labelBackgroundColor=default;verticalAlign=top;aspect=fixed;imageAspect=0;image=https://upload.wikimedia.org/wikipedia/commons/thumb/a/a7/React-icon.svg/512px-React-icon.svg.png;" vertex="1" parent="WIyWlLk6GJQsqaUBKTNV-1">
          <mxGeometry x="-31" y="-60" width="32" height="28.5" as="geometry" />
        </mxCell>
        <mxCell id="7hntRUeOx4rwW0876vjf-16" value="" style="shape=image;verticalLabelPosition=bottom;labelBackgroundColor=default;verticalAlign=top;aspect=fixed;imageAspect=0;image=https://upload.wikimedia.org/wikipedia/commons/thumb/a/a7/React-icon.svg/512px-React-icon.svg.png;" vertex="1" parent="WIyWlLk6GJQsqaUBKTNV-1">
          <mxGeometry x="-31" y="130" width="32" height="28.5" as="geometry" />
        </mxCell>
        <mxCell id="7hntRUeOx4rwW0876vjf-18" value="" style="shape=image;verticalLabelPosition=bottom;labelBackgroundColor=default;verticalAlign=top;aspect=fixed;imageAspect=0;image=https://upload.wikimedia.org/wikipedia/commons/thumb/a/a7/React-icon.svg/512px-React-icon.svg.png;" vertex="1" parent="WIyWlLk6GJQsqaUBKTNV-1">
          <mxGeometry x="-32" y="341" width="32" height="28.5" as="geometry" />
        </mxCell>
        <mxCell id="7hntRUeOx4rwW0876vjf-19" value="" style="shape=image;verticalLabelPosition=bottom;labelBackgroundColor=default;verticalAlign=top;aspect=fixed;imageAspect=0;image=https://upload.wikimedia.org/wikipedia/commons/thumb/a/a7/React-icon.svg/512px-React-icon.svg.png;" vertex="1" parent="WIyWlLk6GJQsqaUBKTNV-1">
          <mxGeometry x="-31" y="761.5" width="32" height="28.5" as="geometry" />
        </mxCell>
        <mxCell id="7hntRUeOx4rwW0876vjf-20" value="" style="shape=image;verticalLabelPosition=bottom;labelBackgroundColor=default;verticalAlign=top;aspect=fixed;imageAspect=0;image=https://upload.wikimedia.org/wikipedia/commons/thumb/a/a7/React-icon.svg/512px-React-icon.svg.png;" vertex="1" parent="WIyWlLk6GJQsqaUBKTNV-1">
          <mxGeometry x="-50" y="540.15" width="32" height="28.5" as="geometry" />
        </mxCell>
        <mxCell id="7hntRUeOx4rwW0876vjf-22" value="" style="shape=image;verticalLabelPosition=bottom;labelBackgroundColor=default;verticalAlign=top;aspect=fixed;imageAspect=0;image=https://upload.wikimedia.org/wikipedia/commons/thumb/c/c3/Python-logo-notext.svg/1200px-Python-logo-notext.svg.png;" vertex="1" parent="WIyWlLk6GJQsqaUBKTNV-1">
          <mxGeometry x="-10" y="540" width="26.1" height="28.65" as="geometry" />
        </mxCell>
        <mxCell id="7hntRUeOx4rwW0876vjf-24" value="" style="shape=image;verticalLabelPosition=bottom;labelBackgroundColor=default;verticalAlign=top;aspect=fixed;imageAspect=0;image=https://miro.medium.com/v2/resize:fit:852/1*vh9pHJkqksf3wtmYodIyNg.jpeg;" vertex="1" parent="WIyWlLk6GJQsqaUBKTNV-1">
          <mxGeometry x="1510" y="-54.75999999999999" width="55.05" height="23.26" as="geometry" />
        </mxCell>
        <mxCell id="7hntRUeOx4rwW0876vjf-25" value="" style="shape=image;verticalLabelPosition=bottom;labelBackgroundColor=default;verticalAlign=top;aspect=fixed;imageAspect=0;image=https://upload.wikimedia.org/wikipedia/commons/thumb/a/a7/React-icon.svg/512px-React-icon.svg.png;" vertex="1" parent="WIyWlLk6GJQsqaUBKTNV-1">
          <mxGeometry x="1470" y="-60" width="32" height="28.5" as="geometry" />
        </mxCell>
        <mxCell id="7hntRUeOx4rwW0876vjf-26" value="" style="shape=image;verticalLabelPosition=bottom;labelBackgroundColor=default;verticalAlign=top;aspect=fixed;imageAspect=0;image=https://upload.wikimedia.org/wikipedia/commons/thumb/a/a7/React-icon.svg/512px-React-icon.svg.png;" vertex="1" parent="WIyWlLk6GJQsqaUBKTNV-1">
          <mxGeometry x="1499" y="140" width="32" height="28.5" as="geometry" />
        </mxCell>
        <mxCell id="7hntRUeOx4rwW0876vjf-27" value="" style="shape=image;verticalLabelPosition=bottom;labelBackgroundColor=default;verticalAlign=top;aspect=fixed;imageAspect=0;image=https://upload.wikimedia.org/wikipedia/commons/thumb/a/a7/React-icon.svg/512px-React-icon.svg.png;" vertex="1" parent="WIyWlLk6GJQsqaUBKTNV-1">
          <mxGeometry x="1499" y="360" width="32" height="28.5" as="geometry" />
        </mxCell>
        <mxCell id="7hntRUeOx4rwW0876vjf-28" value="" style="shape=image;verticalLabelPosition=bottom;labelBackgroundColor=default;verticalAlign=top;aspect=fixed;imageAspect=0;image=https://upload.wikimedia.org/wikipedia/commons/thumb/a/a7/React-icon.svg/512px-React-icon.svg.png;" vertex="1" parent="WIyWlLk6GJQsqaUBKTNV-1">
          <mxGeometry x="1499" y="556" width="32" height="28.5" as="geometry" />
        </mxCell>
        <mxCell id="7hntRUeOx4rwW0876vjf-29" value="" style="shape=image;verticalLabelPosition=bottom;labelBackgroundColor=default;verticalAlign=top;aspect=fixed;imageAspect=0;image=https://upload.wikimedia.org/wikipedia/commons/thumb/a/a7/React-icon.svg/512px-React-icon.svg.png;" vertex="1" parent="WIyWlLk6GJQsqaUBKTNV-1">
          <mxGeometry x="1499" y="750" width="32" height="28.5" as="geometry" />
        </mxCell>
      </root>
    </mxGraphModel>
  </diagram>
</mxfile>
